<mxfile host="app.diagrams.net" modified="2023-10-30T08:09:59.185Z" agent="Mozilla/5.0 (Macintosh; Intel Mac OS X 10_15_7) AppleWebKit/537.36 (KHTML, like Gecko) Chrome/118.0.0.0 Safari/537.36" etag="wTjIqXm0tMCltCA8znpo" version="22.0.8" type="device">
  <diagram name="Page-1" id="nx7LIq2Fe1vS2iPR4uFg">
    <mxGraphModel dx="2311" dy="2476" grid="0" gridSize="10" guides="1" tooltips="1" connect="1" arrows="1" fold="1" page="1" pageScale="1" pageWidth="800" pageHeight="900" math="0" shadow="0">
      <root>
        <mxCell id="0" />
        <mxCell id="1" parent="0" />
        <mxCell id="wA4eCwuCTSMMDCAFvDcx-130" value="" style="rounded=1;whiteSpace=wrap;html=1;fontFamily=Helvetica;fontSize=11;dashed=1;shadow=0;fillColor=#f5f5f5;fontColor=#333333;strokeColor=#666666;" parent="1" vertex="1">
          <mxGeometry x="120" y="-847" width="560" height="230" as="geometry" />
        </mxCell>
        <mxCell id="wA4eCwuCTSMMDCAFvDcx-190" value="" style="rounded=1;whiteSpace=wrap;html=1;fontFamily=Helvetica;fontSize=11;fillColor=#fff2cc;dashed=1;strokeColor=#d6b656;fillStyle=auto;" parent="1" vertex="1">
          <mxGeometry x="536.25" y="-518" width="160" height="150" as="geometry" />
        </mxCell>
        <mxCell id="wA4eCwuCTSMMDCAFvDcx-109" value="" style="rounded=1;whiteSpace=wrap;html=1;fontFamily=Helvetica;fontSize=11;fillColor=#dae8fc;dashed=1;strokeColor=#6c8ebf;fillStyle=auto;" parent="1" vertex="1">
          <mxGeometry x="321.25" y="-517" width="160" height="348" as="geometry" />
        </mxCell>
        <mxCell id="wA4eCwuCTSMMDCAFvDcx-203" style="edgeStyle=none;shape=connector;rounded=1;orthogonalLoop=1;jettySize=auto;html=1;exitX=0.5;exitY=1;exitDx=0;exitDy=0;labelBackgroundColor=default;strokeColor=#82b366;align=center;verticalAlign=middle;fontFamily=Helvetica;fontSize=11;fontColor=default;endArrow=classic;fillColor=#d5e8d4;strokeWidth=2;startArrow=none;startFill=0;" parent="1" source="wA4eCwuCTSMMDCAFvDcx-180" edge="1">
          <mxGeometry relative="1" as="geometry">
            <mxPoint x="401.25" y="-337" as="targetPoint" />
          </mxGeometry>
        </mxCell>
        <mxCell id="wA4eCwuCTSMMDCAFvDcx-210" style="edgeStyle=none;shape=connector;rounded=1;orthogonalLoop=1;jettySize=auto;html=1;entryX=0.5;entryY=1;entryDx=0;entryDy=0;labelBackgroundColor=default;strokeColor=#82b366;align=center;verticalAlign=middle;fontFamily=Helvetica;fontSize=11;fontColor=default;endArrow=classic;strokeWidth=2;startArrow=none;startFill=0;fillColor=#d5e8d4;" parent="1" source="wA4eCwuCTSMMDCAFvDcx-180" target="wA4eCwuCTSMMDCAFvDcx-207" edge="1">
          <mxGeometry relative="1" as="geometry" />
        </mxCell>
        <mxCell id="wA4eCwuCTSMMDCAFvDcx-180" value="sentinel" style="rounded=1;whiteSpace=wrap;html=1;fontFamily=Helvetica;fontSize=11;fontColor=default;horizontal=1;verticalAlign=top;" parent="1" vertex="1">
          <mxGeometry x="361.25" y="-478" width="80" height="70" as="geometry" />
        </mxCell>
        <mxCell id="wA4eCwuCTSMMDCAFvDcx-27" style="edgeStyle=none;shape=connector;orthogonalLoop=1;jettySize=auto;html=1;entryX=0.5;entryY=1;entryDx=0;entryDy=0;labelBackgroundColor=default;strokeColor=default;align=center;verticalAlign=middle;fontFamily=Helvetica;fontSize=11;fontColor=default;endArrow=classic;startArrow=block;startFill=1;curved=1;" parent="1" source="wA4eCwuCTSMMDCAFvDcx-17" target="wA4eCwuCTSMMDCAFvDcx-26" edge="1">
          <mxGeometry relative="1" as="geometry">
            <Array as="points">
              <mxPoint x="391.25" y="-117" />
            </Array>
          </mxGeometry>
        </mxCell>
        <mxCell id="wA4eCwuCTSMMDCAFvDcx-17" value="workstation&lt;br&gt;gate1: IP1&lt;br&gt;gate2: IP2" style="ellipse;whiteSpace=wrap;html=1;" parent="1" vertex="1">
          <mxGeometry x="246.25" y="-117" width="90" height="70" as="geometry" />
        </mxCell>
        <mxCell id="wA4eCwuCTSMMDCAFvDcx-26" value="workstation adapter" style="rounded=1;absoluteArcSize=1;arcSize=14;whiteSpace=wrap;strokeWidth=2;" parent="1" vertex="1">
          <mxGeometry x="340" y="-249" width="120" height="50" as="geometry" />
        </mxCell>
        <mxCell id="wA4eCwuCTSMMDCAFvDcx-174" style="edgeStyle=none;shape=connector;rounded=1;orthogonalLoop=1;jettySize=auto;html=1;exitX=0;exitY=0.5;exitDx=0;exitDy=0;entryX=1;entryY=0;entryDx=0;entryDy=0;labelBackgroundColor=default;strokeColor=default;align=center;verticalAlign=middle;fontFamily=Helvetica;fontSize=11;fontColor=default;endArrow=classic;" parent="1" source="wA4eCwuCTSMMDCAFvDcx-37" target="wA4eCwuCTSMMDCAFvDcx-98" edge="1">
          <mxGeometry relative="1" as="geometry">
            <Array as="points">
              <mxPoint x="397" y="-774" />
            </Array>
          </mxGeometry>
        </mxCell>
        <mxCell id="wA4eCwuCTSMMDCAFvDcx-37" value="1c exchanger" style="rounded=1;absoluteArcSize=1;arcSize=14;whiteSpace=wrap;strokeWidth=2;shadow=0;glass=0;" parent="1" vertex="1">
          <mxGeometry x="508.75" y="-817" width="120" height="40" as="geometry" />
        </mxCell>
        <mxCell id="wA4eCwuCTSMMDCAFvDcx-42" value="Фронтэнд" style="rounded=1;absoluteArcSize=1;arcSize=14;whiteSpace=wrap;strokeWidth=2;shadow=0;glass=0;" parent="1" vertex="1">
          <mxGeometry x="160" y="-827" width="120" height="40" as="geometry" />
        </mxCell>
        <mxCell id="wA4eCwuCTSMMDCAFvDcx-175" style="edgeStyle=none;shape=connector;rounded=1;orthogonalLoop=1;jettySize=auto;html=1;exitX=0;exitY=0.5;exitDx=0;exitDy=0;entryX=1;entryY=0.5;entryDx=0;entryDy=0;labelBackgroundColor=default;strokeColor=default;align=center;verticalAlign=middle;fontFamily=Helvetica;fontSize=11;fontColor=default;endArrow=classic;" parent="1" source="wA4eCwuCTSMMDCAFvDcx-44" target="wA4eCwuCTSMMDCAFvDcx-98" edge="1">
          <mxGeometry relative="1" as="geometry" />
        </mxCell>
        <mxCell id="wA4eCwuCTSMMDCAFvDcx-44" value="Телеграм" style="rounded=1;absoluteArcSize=1;arcSize=14;whiteSpace=wrap;strokeWidth=2;shadow=0;glass=0;" parent="1" vertex="1">
          <mxGeometry x="508.75" y="-757" width="120" height="40" as="geometry" />
        </mxCell>
        <mxCell id="wA4eCwuCTSMMDCAFvDcx-136" style="edgeStyle=none;shape=connector;rounded=1;orthogonalLoop=1;jettySize=auto;html=1;labelBackgroundColor=default;strokeColor=#82b366;align=center;verticalAlign=middle;fontFamily=Helvetica;fontSize=11;fontColor=default;endArrow=classic;startArrow=classic;startFill=1;strokeWidth=2;fillColor=#d5e8d4;" parent="1" target="wA4eCwuCTSMMDCAFvDcx-101" edge="1">
          <mxGeometry relative="1" as="geometry">
            <mxPoint x="181.25" y="-717" as="sourcePoint" />
          </mxGeometry>
        </mxCell>
        <mxCell id="wA4eCwuCTSMMDCAFvDcx-98" value="storage" style="rounded=1;absoluteArcSize=1;arcSize=14;whiteSpace=wrap;strokeWidth=2;shadow=0;glass=0;" parent="1" vertex="1">
          <mxGeometry x="160" y="-757" width="122.5" height="40" as="geometry" />
        </mxCell>
        <mxCell id="wA4eCwuCTSMMDCAFvDcx-101" value="" style="dashed=0;outlineConnect=0;html=1;align=center;labelPosition=center;verticalLabelPosition=bottom;verticalAlign=top;shape=mxgraph.webicons.mongodb;gradientColor=#DFDEDE;fontFamily=Helvetica;fontSize=11;fontColor=default;" parent="1" vertex="1">
          <mxGeometry x="161.25" y="-687" width="40" height="40" as="geometry" />
        </mxCell>
        <mxCell id="wA4eCwuCTSMMDCAFvDcx-112" value="" style="image;sketch=0;aspect=fixed;html=1;points=[];align=center;fontSize=12;image=img/lib/mscae/Cache_Redis_Product.svg;fontFamily=Helvetica;fontColor=default;" parent="1" vertex="1">
          <mxGeometry x="375" y="-458" width="50" height="42" as="geometry" />
        </mxCell>
        <mxCell id="wA4eCwuCTSMMDCAFvDcx-113" value="cache provider" style="rounded=1;absoluteArcSize=1;arcSize=14;whiteSpace=wrap;strokeWidth=2;shadow=0;glass=0;" parent="1" vertex="1">
          <mxGeometry x="338.75" y="-336" width="122.5" height="40" as="geometry" />
        </mxCell>
        <mxCell id="wA4eCwuCTSMMDCAFvDcx-117" style="edgeStyle=none;shape=connector;rounded=1;orthogonalLoop=1;jettySize=auto;html=1;labelBackgroundColor=default;align=center;verticalAlign=middle;fontFamily=Helvetica;fontSize=11;fontColor=default;endArrow=classic;startArrow=classic;startFill=1;strokeWidth=2;entryX=0.5;entryY=1;entryDx=0;entryDy=0;" parent="1" target="wA4eCwuCTSMMDCAFvDcx-113" edge="1">
          <mxGeometry relative="1" as="geometry">
            <mxPoint x="401.25" y="-247" as="sourcePoint" />
            <mxPoint x="400.65999999999997" y="-317" as="targetPoint" />
          </mxGeometry>
        </mxCell>
        <mxCell id="wA4eCwuCTSMMDCAFvDcx-159" value="Domain 1" style="text;html=1;strokeColor=none;fillColor=none;align=center;verticalAlign=middle;whiteSpace=wrap;rounded=0;fontSize=11;fontFamily=Helvetica;fontColor=default;" parent="1" vertex="1">
          <mxGeometry x="112.5" y="-548" width="60" height="30" as="geometry" />
        </mxCell>
        <mxCell id="wA4eCwuCTSMMDCAFvDcx-169" value="Без привязки к серверу" style="text;html=1;strokeColor=none;fillColor=none;align=center;verticalAlign=middle;whiteSpace=wrap;rounded=0;fontSize=11;fontFamily=Helvetica;fontColor=default;" parent="1" vertex="1">
          <mxGeometry x="129" y="-877" width="168.5" height="30" as="geometry" />
        </mxCell>
        <mxCell id="wA4eCwuCTSMMDCAFvDcx-177" value="R1&lt;br&gt;S2" style="text;html=1;strokeColor=none;fillColor=none;align=center;verticalAlign=middle;whiteSpace=wrap;rounded=0;fontSize=13;fontFamily=Helvetica;fontColor=default;fontStyle=1" parent="1" vertex="1">
          <mxGeometry x="315" y="-488" width="60" height="30" as="geometry" />
        </mxCell>
        <mxCell id="wA4eCwuCTSMMDCAFvDcx-182" value="" style="rounded=1;whiteSpace=wrap;html=1;fontFamily=Helvetica;fontSize=11;fillColor=#d5e8d4;dashed=1;strokeColor=#82b366;fillStyle=auto;" parent="1" vertex="1">
          <mxGeometry x="106.25" y="-517" width="160" height="348" as="geometry" />
        </mxCell>
        <mxCell id="wA4eCwuCTSMMDCAFvDcx-213" style="edgeStyle=none;shape=connector;rounded=1;orthogonalLoop=1;jettySize=auto;html=1;exitX=1;exitY=0.5;exitDx=0;exitDy=0;entryX=0;entryY=0.5;entryDx=0;entryDy=0;labelBackgroundColor=default;strokeColor=default;align=center;verticalAlign=middle;fontFamily=Helvetica;fontSize=11;fontColor=default;endArrow=classic;startArrow=none;startFill=0;strokeWidth=2;endFill=1;dashed=1;" parent="1" source="wA4eCwuCTSMMDCAFvDcx-183" target="wA4eCwuCTSMMDCAFvDcx-180" edge="1">
          <mxGeometry relative="1" as="geometry" />
        </mxCell>
        <mxCell id="wA4eCwuCTSMMDCAFvDcx-183" value="sentinel" style="rounded=1;whiteSpace=wrap;html=1;fontFamily=Helvetica;fontSize=11;fontColor=default;horizontal=1;verticalAlign=top;" parent="1" vertex="1">
          <mxGeometry x="146.25" y="-478" width="80" height="70" as="geometry" />
        </mxCell>
        <mxCell id="wA4eCwuCTSMMDCAFvDcx-184" value="workstation adapter" style="rounded=1;absoluteArcSize=1;arcSize=14;whiteSpace=wrap;strokeWidth=2;" parent="1" vertex="1">
          <mxGeometry x="125" y="-249" width="120" height="50" as="geometry" />
        </mxCell>
        <mxCell id="wA4eCwuCTSMMDCAFvDcx-185" value="" style="image;sketch=0;aspect=fixed;html=1;points=[];align=center;fontSize=12;image=img/lib/mscae/Cache_Redis_Product.svg;fontFamily=Helvetica;fontColor=default;" parent="1" vertex="1">
          <mxGeometry x="160" y="-458" width="50" height="42" as="geometry" />
        </mxCell>
        <mxCell id="wA4eCwuCTSMMDCAFvDcx-186" value="cache provider" style="rounded=1;absoluteArcSize=1;arcSize=14;whiteSpace=wrap;strokeWidth=2;shadow=0;glass=0;" parent="1" vertex="1">
          <mxGeometry x="123.75" y="-336" width="122.5" height="40" as="geometry" />
        </mxCell>
        <mxCell id="wA4eCwuCTSMMDCAFvDcx-187" style="edgeStyle=none;shape=connector;rounded=1;orthogonalLoop=1;jettySize=auto;html=1;labelBackgroundColor=default;align=center;verticalAlign=middle;fontFamily=Helvetica;fontSize=11;fontColor=default;endArrow=classic;startArrow=classic;startFill=1;strokeWidth=2;entryX=0.5;entryY=1;entryDx=0;entryDy=0;" parent="1" target="wA4eCwuCTSMMDCAFvDcx-186" edge="1">
          <mxGeometry relative="1" as="geometry">
            <mxPoint x="186.25" y="-247" as="sourcePoint" />
            <mxPoint x="185.65999999999997" y="-317" as="targetPoint" />
          </mxGeometry>
        </mxCell>
        <mxCell id="wA4eCwuCTSMMDCAFvDcx-188" value="M1&lt;br&gt;S1" style="text;html=1;strokeColor=none;fillColor=none;align=center;verticalAlign=middle;whiteSpace=wrap;rounded=0;fontSize=13;fontFamily=Helvetica;fontColor=default;fontStyle=1" parent="1" vertex="1">
          <mxGeometry x="100" y="-488" width="60" height="30" as="geometry" />
        </mxCell>
        <mxCell id="wA4eCwuCTSMMDCAFvDcx-189" value="" style="edgeStyle=none;shape=connector;rounded=1;orthogonalLoop=1;jettySize=auto;html=1;exitX=0.5;exitY=0;exitDx=0;exitDy=0;labelBackgroundColor=default;strokeColor=#b85450;align=center;verticalAlign=middle;fontFamily=Helvetica;fontSize=11;fontColor=default;endArrow=classic;strokeWidth=2;fillColor=#f8cecc;startArrow=none;startFill=0;entryX=0.25;entryY=1;entryDx=0;entryDy=0;" parent="1" target="wA4eCwuCTSMMDCAFvDcx-183" edge="1">
          <mxGeometry relative="1" as="geometry">
            <mxPoint x="166" y="-336" as="sourcePoint" />
            <mxPoint x="167.25" y="-377" as="targetPoint" />
          </mxGeometry>
        </mxCell>
        <mxCell id="wA4eCwuCTSMMDCAFvDcx-116" style="shape=connector;orthogonalLoop=1;jettySize=auto;html=1;labelBackgroundColor=default;align=center;verticalAlign=middle;fontFamily=Helvetica;fontSize=11;fontColor=default;endArrow=classic;startArrow=none;startFill=0;strokeWidth=2;exitX=1;exitY=0.25;exitDx=0;exitDy=0;curved=1;endFill=1;dashed=1;entryX=0;entryY=0.5;entryDx=0;entryDy=0;" parent="1" source="wA4eCwuCTSMMDCAFvDcx-183" target="wA4eCwuCTSMMDCAFvDcx-191" edge="1">
          <mxGeometry relative="1" as="geometry">
            <mxPoint x="271.25" y="-473" as="sourcePoint" />
            <mxPoint x="621.25" y="-473" as="targetPoint" />
            <Array as="points">
              <mxPoint x="401.25" y="-677" />
            </Array>
          </mxGeometry>
        </mxCell>
        <mxCell id="wA4eCwuCTSMMDCAFvDcx-205" style="edgeStyle=none;shape=connector;orthogonalLoop=1;jettySize=auto;html=1;exitX=0.5;exitY=1;exitDx=0;exitDy=0;entryX=0.75;entryY=0;entryDx=0;entryDy=0;labelBackgroundColor=default;strokeColor=#82b366;align=center;verticalAlign=middle;fontFamily=Helvetica;fontSize=11;fontColor=default;endArrow=classic;strokeWidth=2;startArrow=none;startFill=0;fillColor=#d5e8d4;curved=1;" parent="1" source="wA4eCwuCTSMMDCAFvDcx-191" target="wA4eCwuCTSMMDCAFvDcx-113" edge="1">
          <mxGeometry relative="1" as="geometry">
            <Array as="points">
              <mxPoint x="591.25" y="-387" />
              <mxPoint x="451.25" y="-377" />
            </Array>
          </mxGeometry>
        </mxCell>
        <mxCell id="wA4eCwuCTSMMDCAFvDcx-206" style="edgeStyle=none;shape=connector;orthogonalLoop=1;jettySize=auto;html=1;exitX=0.25;exitY=1;exitDx=0;exitDy=0;entryX=0.75;entryY=0;entryDx=0;entryDy=0;labelBackgroundColor=default;strokeColor=#82b366;align=center;verticalAlign=middle;fontFamily=Helvetica;fontSize=11;fontColor=default;endArrow=classic;strokeWidth=2;startArrow=none;startFill=0;fillColor=#d5e8d4;curved=1;" parent="1" source="wA4eCwuCTSMMDCAFvDcx-191" target="wA4eCwuCTSMMDCAFvDcx-186" edge="1">
          <mxGeometry relative="1" as="geometry">
            <mxPoint x="601.25" y="-416" as="sourcePoint" />
            <mxPoint x="240.625" y="-344" as="targetPoint" />
            <Array as="points">
              <mxPoint x="511.25" y="-387" />
              <mxPoint x="251.25" y="-377" />
            </Array>
          </mxGeometry>
        </mxCell>
        <mxCell id="wA4eCwuCTSMMDCAFvDcx-211" style="edgeStyle=none;shape=connector;orthogonalLoop=1;jettySize=auto;html=1;exitX=0.5;exitY=0;exitDx=0;exitDy=0;entryX=0.75;entryY=1;entryDx=0;entryDy=0;labelBackgroundColor=default;strokeColor=#82b366;align=center;verticalAlign=middle;fontFamily=Helvetica;fontSize=11;fontColor=default;endArrow=classic;strokeWidth=2;startArrow=none;startFill=0;fillColor=#d5e8d4;curved=1;" parent="1" source="wA4eCwuCTSMMDCAFvDcx-191" target="wA4eCwuCTSMMDCAFvDcx-207" edge="1">
          <mxGeometry relative="1" as="geometry">
            <Array as="points">
              <mxPoint x="501.25" y="-567" />
            </Array>
          </mxGeometry>
        </mxCell>
        <mxCell id="wA4eCwuCTSMMDCAFvDcx-191" value="sentinel" style="rounded=1;whiteSpace=wrap;html=1;fontFamily=Helvetica;fontSize=11;fontColor=default;horizontal=1;verticalAlign=top;" parent="1" vertex="1">
          <mxGeometry x="576.25" y="-478" width="80" height="70" as="geometry" />
        </mxCell>
        <mxCell id="wA4eCwuCTSMMDCAFvDcx-193" value="" style="image;sketch=0;aspect=fixed;html=1;points=[];align=center;fontSize=12;image=img/lib/mscae/Cache_Redis_Product.svg;fontFamily=Helvetica;fontColor=default;backgroundOutline=0;autosize=0;imageAspect=1;" parent="1" vertex="1">
          <mxGeometry x="590" y="-458" width="50" height="42" as="geometry" />
        </mxCell>
        <mxCell id="wA4eCwuCTSMMDCAFvDcx-196" value="R2&lt;br&gt;S3" style="text;html=1;strokeColor=none;fillColor=none;align=center;verticalAlign=middle;whiteSpace=wrap;rounded=0;fontSize=13;fontFamily=Helvetica;fontColor=default;fontStyle=1" parent="1" vertex="1">
          <mxGeometry x="535" y="-508" width="60" height="30" as="geometry" />
        </mxCell>
        <mxCell id="wA4eCwuCTSMMDCAFvDcx-198" style="edgeStyle=none;shape=connector;orthogonalLoop=1;jettySize=auto;html=1;exitX=0;exitY=0;exitDx=0;exitDy=0;entryX=0.5;entryY=1;entryDx=0;entryDy=0;labelBackgroundColor=default;strokeColor=default;align=center;verticalAlign=middle;fontFamily=Helvetica;fontSize=11;fontColor=default;endArrow=classic;startArrow=classic;startFill=1;curved=1;" parent="1" source="wA4eCwuCTSMMDCAFvDcx-17" target="wA4eCwuCTSMMDCAFvDcx-184" edge="1">
          <mxGeometry relative="1" as="geometry">
            <Array as="points">
              <mxPoint x="221.25" y="-107" />
            </Array>
          </mxGeometry>
        </mxCell>
        <mxCell id="wA4eCwuCTSMMDCAFvDcx-200" value="Domain 2" style="text;html=1;strokeColor=none;fillColor=none;align=center;verticalAlign=middle;whiteSpace=wrap;rounded=0;fontSize=11;fontFamily=Helvetica;fontColor=default;" parent="1" vertex="1">
          <mxGeometry x="331.25" y="-548" width="60" height="30" as="geometry" />
        </mxCell>
        <mxCell id="wA4eCwuCTSMMDCAFvDcx-201" value="Domain 3" style="text;html=1;strokeColor=none;fillColor=none;align=center;verticalAlign=middle;whiteSpace=wrap;rounded=0;fontSize=11;fontFamily=Helvetica;fontColor=default;" parent="1" vertex="1">
          <mxGeometry x="541.25" y="-548" width="60" height="30" as="geometry" />
        </mxCell>
        <mxCell id="wA4eCwuCTSMMDCAFvDcx-181" value="" style="edgeStyle=none;shape=connector;orthogonalLoop=1;jettySize=auto;html=1;labelBackgroundColor=default;strokeColor=#b85450;align=center;verticalAlign=middle;fontFamily=Helvetica;fontSize=11;fontColor=default;endArrow=classic;strokeWidth=2;fillColor=#f8cecc;startArrow=none;startFill=0;entryX=0.75;entryY=1;entryDx=0;entryDy=0;exitX=0;exitY=0.5;exitDx=0;exitDy=0;curved=1;" parent="1" source="wA4eCwuCTSMMDCAFvDcx-113" target="wA4eCwuCTSMMDCAFvDcx-183" edge="1">
          <mxGeometry relative="1" as="geometry">
            <mxPoint x="371.25" y="-337" as="sourcePoint" />
            <mxPoint x="400.25" y="-387" as="targetPoint" />
            <Array as="points">
              <mxPoint x="221.25" y="-357" />
            </Array>
          </mxGeometry>
        </mxCell>
        <mxCell id="wA4eCwuCTSMMDCAFvDcx-202" style="edgeStyle=none;shape=connector;orthogonalLoop=1;jettySize=auto;html=1;exitX=0.25;exitY=1;exitDx=0;exitDy=0;entryX=0.5;entryY=0;entryDx=0;entryDy=0;labelBackgroundColor=default;align=center;verticalAlign=middle;fontFamily=Helvetica;fontSize=11;fontColor=default;endArrow=classic;strokeWidth=2;startArrow=none;startFill=0;fillColor=#d5e8d4;strokeColor=#82b366;curved=1;" parent="1" source="wA4eCwuCTSMMDCAFvDcx-180" target="wA4eCwuCTSMMDCAFvDcx-186" edge="1">
          <mxGeometry relative="1" as="geometry">
            <Array as="points">
              <mxPoint x="301.25" y="-387" />
              <mxPoint x="201.25" y="-377" />
            </Array>
          </mxGeometry>
        </mxCell>
        <mxCell id="wA4eCwuCTSMMDCAFvDcx-208" style="edgeStyle=none;shape=connector;orthogonalLoop=1;jettySize=auto;html=1;entryX=0.5;entryY=0;entryDx=0;entryDy=0;labelBackgroundColor=default;strokeColor=#b85450;align=center;verticalAlign=middle;fontFamily=Helvetica;fontSize=11;fontColor=default;endArrow=classic;strokeWidth=2;fillColor=#f8cecc;startArrow=none;startFill=0;curved=1;" parent="1" source="wA4eCwuCTSMMDCAFvDcx-207" target="wA4eCwuCTSMMDCAFvDcx-183" edge="1">
          <mxGeometry relative="1" as="geometry">
            <Array as="points">
              <mxPoint x="231.25" y="-607" />
            </Array>
          </mxGeometry>
        </mxCell>
        <mxCell id="wA4eCwuCTSMMDCAFvDcx-212" style="edgeStyle=none;shape=connector;orthogonalLoop=1;jettySize=auto;html=1;exitX=0.5;exitY=0;exitDx=0;exitDy=0;entryX=1;entryY=1;entryDx=0;entryDy=0;labelBackgroundColor=default;strokeColor=default;align=center;verticalAlign=middle;fontFamily=Helvetica;fontSize=11;fontColor=default;endArrow=classic;startArrow=classic;startFill=1;strokeWidth=2;curved=1;" parent="1" source="wA4eCwuCTSMMDCAFvDcx-207" target="wA4eCwuCTSMMDCAFvDcx-98" edge="1">
          <mxGeometry relative="1" as="geometry">
            <Array as="points">
              <mxPoint x="365" y="-717" />
            </Array>
          </mxGeometry>
        </mxCell>
        <mxCell id="wA4eCwuCTSMMDCAFvDcx-207" value="cache controller" style="rounded=1;absoluteArcSize=1;arcSize=14;whiteSpace=wrap;strokeWidth=2;shadow=0;glass=0;" parent="1" vertex="1">
          <mxGeometry x="335" y="-677" width="120" height="40" as="geometry" />
        </mxCell>
      </root>
    </mxGraphModel>
  </diagram>
</mxfile>
